# xmcd
#
# Track frame offsets: 
#        150
#        11185
#        29899
#        51336
#        66834
#        80351
#        99702
#        103451
#        122157
#        138555
#        163872
#        176039
#        196628
#        196929
#        211260
#        230424
#        251586
#
# Disc length: 3544 seconds
#
# Revision: 0
# Processed by: cddbd v1.5.2PL0 Copyright (c) Steve Scherf et al.
# Submitted via: ExactAudioCopyFreeDBPlugin 1.0
#
DISCID=fe0dd611
DTITLE=Evidence - Cats and Dogs
DYEAR=2011
DGENRE=Hip-Hop
TTITLE0=The Liner Notes (feat. Aloe Blacc)
TTITLE1=Strangers
TTITLE2=The Red Carpet (feat. Raekwon and Ras Kass)
TTITLE3=It Wasn't Me
TTITLE4=I Don't Need Love
TTITLE5=You
TTITLE6=God Bless That Man
TTITLE7=Fame (feat. Roc Marciano and Prodigy)
TTITLE8=James Hendrix (StepBrothers)
TTITLE9=Late For The Sky (feat. Slug and Aesop Rock)
TTITLE10=Crash
TTITLE11=Where You Come From (feat. Rakaa, Lil' Fame and Termanology)
TTITLE12=Untitled
TTITLE13=To Be Continued...
TTITLE14=Falling Down
TTITLE15=Well Runs Dry (feat. Krondon)
TTITLE16=The Epilogue
EXTD=
EXTT0=
EXTT1=
EXTT2=
EXTT3=
EXTT4=
EXTT5=
EXTT6=
EXTT7=
EXTT8=
EXTT9=
EXTT10=
EXTT11=
EXTT12=
EXTT13=
EXTT14=
EXTT15=
EXTT16=
PLAYORDER=
